<svg width="142" height="153" viewBox="0 0 142 153" fill="none" xmlns="http://www.w3.org/2000/svg">
<path d="M140.234 82C137.303 82 103.412 85.6208 78.5483 88.5529C73.5974 89.1367 68.5297 89.9159 63.8541 91.6964C61.9308 92.4288 59.985 93.0645 59.1043 95.059C58.0903 97.3556 58.7198 100.568 58.8263 102.978C59.0496 108.037 59.3843 113.107 59.8719 118.148C60.2966 122.54 61.0573 126.887 61.4292 131.281C61.7894 135.538 61.2539 139.922 61.9186 144.14C62.3007 146.564 63.2109 148.767 64.0766 151.041" stroke="#203742" stroke-width="2.30136" stroke-linecap="round"/>
<path d="M19.87 108.909C15.8711 101.275 14.2783 90.969 12.0051 82.6786C7.82248 67.4243 6.27957 52.4776 13.1914 37.7742C14.7539 34.4504 18.2032 25.9304 23.6486 27.6246C29.2931 29.3806 26.3099 42.4633 25.4061 46.0784C24.7036 48.8884 22.966 57.7239 18.5958 54.163C13.1089 49.6922 7.5302 42.1521 4.57962 35.797C-0.0592058 25.8057 -0.496032 7.97378 11.1703 2.14062" stroke="#203742" stroke-width="2" stroke-linecap="round"/>
<path d="M6.1167 1.02964C7.83268 1.02964 11.6854 0.625563 11.6854 2.80151C11.6854 4.57339 11.6854 6.34526 11.6854 8.11714" stroke="#203742" stroke-width="2" stroke-linecap="round"/>
</svg>
