<svg width="395" height="316" viewBox="0 0 395 316" fill="none" xmlns="http://www.w3.org/2000/svg">
<path d="M210.482 31.7735L161.756 20.655C161.367 20.5696 160.999 20.4076 160.673 20.1784C160.348 19.9493 160.071 19.6575 159.859 19.3203C159.648 18.983 159.505 18.607 159.441 18.2141C159.376 17.8213 159.39 17.4194 159.482 17.0321L159.887 15.2531C159.972 14.8642 160.134 14.4962 160.363 14.1706C160.593 13.845 160.884 13.5683 161.222 13.3566C161.559 13.145 161.935 13.0026 162.328 12.9379C162.721 12.8731 163.122 12.8873 163.51 12.9795L212.231 24.098L210.482 31.7735Z" fill="#C7B8F8"/>
<path d="M231.245 100.713L216.004 97.8951C206.51 96.1385 198.102 90.6826 192.63 82.7274C187.158 74.7722 185.071 64.9694 186.826 55.4749L191.943 27.7212C192.42 25.1395 193.903 22.8531 196.066 21.3649C198.229 19.8768 200.894 19.3087 203.476 19.7858L264.995 31.1642C266.829 31.4986 268.579 32.1914 270.145 33.2031C271.711 34.2148 273.062 35.5255 274.121 37.06C275.18 38.5945 275.926 40.3228 276.315 42.1459C276.705 43.969 276.732 45.8511 276.393 47.6845L271.721 72.8848C270.042 81.9417 264.835 89.9612 257.245 95.1798C249.655 100.398 240.302 102.389 231.245 100.713Z" fill="black"/>
<path d="M201.107 24.5178C197.759 24.3179 195.8 25.2374 194.736 25.937C188.155 30.2444 191.823 41.4679 183.877 53.0261C183.092 54.1676 182.234 55.2575 181.309 56.2892L179.49 58.2531C179.031 58.7493 178.77 59.3962 178.755 60.0718C178.74 60.7475 178.973 61.4051 179.41 61.9209L181.878 64.8192L180.629 80.1103C180.514 81.4395 179.79 91.3437 187.01 97.67L187.51 98.0997C190.371 100.372 193.897 101.647 197.549 101.728L209.127 102.082V118.993H247.48L247.86 83.7431C247.86 83.7431 256.6 82.244 258.189 73.644C258.59 71.4931 258.499 69.2792 257.923 67.1683C257.346 65.0575 256.3 63.1046 254.861 61.4562C251.997 58.2131 246.95 55.4597 238.64 59.3374C235.86 60.4432 232.83 60.7615 229.881 60.2572C226.932 59.753 224.179 58.4457 221.925 56.4791C216.253 51.4021 216.668 44.1413 216.733 43.2568C216.733 43.2568 210.297 41.3479 207.204 39.1992C204.565 37.3653 201.692 33.5075 201.107 24.5178Z" fill="white"/>
<path d="M248.483 119.992H208.142V103.052L197.528 102.722C193.659 102.628 189.926 101.275 186.894 98.8692C186.714 98.7193 186.529 98.5694 186.35 98.4095C178.979 91.9483 179.464 81.9492 179.634 80.0103L180.848 65.139L178.649 62.5605C178.051 61.8596 177.731 60.9633 177.75 60.042C177.77 59.1207 178.127 58.2386 178.754 57.5634L180.573 55.5946C181.474 54.5992 182.308 53.5459 183.072 52.4414C186.929 46.8397 187.954 41.3779 188.858 36.5607C189.763 31.7435 190.562 27.471 194.21 25.0675C196.064 23.8532 198.413 23.3235 201.206 23.4934L202.085 23.5483L202.145 24.4228C202.595 31.3638 204.504 36.046 207.817 38.3447C210.745 40.3785 217.002 42.2524 217.062 42.2674L217.836 42.4972L217.776 43.3018C217.681 44.561 217.476 51.0872 222.633 55.7045C224.743 57.5557 227.324 58.7863 230.09 59.26C232.856 59.7337 235.699 59.4318 238.304 58.3879C247.259 54.2404 252.686 57.3885 255.664 60.7616C257.199 62.5266 258.316 64.6148 258.933 66.871C259.55 69.1273 259.65 71.4935 259.227 73.7939C257.828 81.3695 251.232 83.853 248.903 84.5027L248.483 119.992ZM210.141 117.993H246.504L246.909 82.8786L247.729 82.7387C248.058 82.6837 255.804 81.2396 257.223 73.4391C257.594 71.4375 257.508 69.378 256.973 67.414C256.437 65.45 255.466 63.6321 254.13 62.0958C250.447 57.9282 245.385 57.2986 239.079 60.2269L239.019 60.2519C236.067 61.4376 232.845 61.7805 229.71 61.2423C226.575 60.7041 223.651 59.3059 221.264 57.2036C216.147 52.6163 215.677 46.405 215.712 43.9614C213.893 43.3817 209.216 41.7927 206.643 39.9987C202.96 37.4452 200.786 32.5581 200.182 25.4722C198.461 25.4105 196.76 25.8553 195.289 26.7515C192.356 28.6703 191.671 32.3132 190.792 36.9255C189.898 41.6877 188.793 47.6193 184.691 53.5708C183.882 54.7482 182.997 55.8716 182.042 56.9338L180.208 58.9326C179.916 59.2505 179.75 59.6642 179.742 60.0959C179.734 60.5276 179.883 60.9474 180.163 61.2762L182.897 64.4894L181.617 80.1902C181.457 81.9691 181.013 91.0938 187.659 96.9154C187.819 97.0553 187.984 97.1952 188.159 97.3252C190.853 99.453 194.166 100.647 197.598 100.728L210.146 101.118L210.141 117.993Z" fill="black"/>
<path d="M245.253 77.3326C244.462 77.3326 243.689 77.0981 243.032 76.6589C242.374 76.2196 241.862 75.5953 241.559 74.8648C241.257 74.1343 241.177 73.3305 241.332 72.555C241.486 71.7796 241.867 71.0672 242.426 70.5082C242.985 69.9491 243.697 69.5683 244.473 69.4141C245.248 69.2598 246.052 69.339 246.782 69.6416C247.513 69.9442 248.137 70.4566 248.576 71.114C249.016 71.7714 249.25 72.5443 249.25 73.3349C249.25 74.3952 248.829 75.412 248.079 76.1617C247.33 76.9114 246.313 77.3326 245.253 77.3326ZM245.253 71.3061C244.857 71.3061 244.471 71.4234 244.142 71.643C243.813 71.8626 243.557 72.1748 243.406 72.54C243.255 72.9053 243.215 73.3072 243.292 73.6949C243.369 74.0826 243.56 74.4388 243.839 74.7183C244.119 74.9979 244.475 75.1883 244.863 75.2654C245.25 75.3425 245.652 75.3029 246.017 75.1516C246.383 75.0004 246.695 74.7442 246.914 74.4155C247.134 74.0867 247.251 73.7003 247.251 73.305C247.251 72.7748 247.041 72.2664 246.666 71.8916C246.291 71.5167 245.783 71.3061 245.253 71.3061Z" fill="black"/>
<path d="M242.239 74.3199C241.98 74.32 241.731 74.2196 241.544 74.0396C241.358 73.8597 241.249 73.6144 241.239 73.3554C241.17 71.2917 241.784 69.6226 243.073 68.3934C245.632 65.9498 249.904 66.2596 250.069 66.2796C250.201 66.2898 250.329 66.3257 250.446 66.3853C250.563 66.4449 250.668 66.5271 250.753 66.6271C250.839 66.7271 250.904 66.843 250.945 66.9681C250.986 67.0932 251.001 67.2252 250.991 67.3565C250.981 67.4877 250.945 67.6157 250.886 67.733C250.826 67.8504 250.744 67.9548 250.644 68.0405C250.544 68.1261 250.428 68.1912 250.303 68.232C250.178 68.2728 250.046 68.2886 249.914 68.2784C249.879 68.2784 246.337 68.0286 244.418 69.8525C243.975 70.303 243.636 70.8454 243.427 71.4413C243.217 72.0371 243.141 72.6719 243.203 73.3005C243.211 73.5647 243.114 73.8214 242.934 74.0144C242.753 74.2073 242.503 74.3208 242.239 74.3299V74.3199Z" fill="black"/>
<path d="M203.201 59.308C204.507 59.308 205.565 58.2498 205.565 56.9444C205.565 55.639 204.507 54.5808 203.201 54.5808C201.896 54.5808 200.838 55.639 200.838 56.9444C200.838 58.2498 201.896 59.308 203.201 59.308Z" fill="black"/>
<path d="M209.082 101.134H227.421C227.586 101.133 227.746 101.189 227.874 101.292C228.001 101.396 228.089 101.54 228.122 101.701C228.156 101.862 228.132 102.03 228.055 102.175C227.978 102.321 227.853 102.435 227.701 102.499L209.082 110.439V101.134Z" fill="black"/>
<path d="M192.087 78.7917C190.024 78.7614 188.002 78.2151 186.205 77.2027C186.091 77.1371 185.991 77.0496 185.911 76.9454C185.831 76.8412 185.772 76.7223 185.738 76.5954C185.704 76.4685 185.696 76.3361 185.713 76.2058C185.73 76.0755 185.772 75.9498 185.838 75.836C185.903 75.7221 185.991 75.6223 186.095 75.5422C186.199 75.4622 186.318 75.4034 186.445 75.3693C186.572 75.3352 186.704 75.3264 186.835 75.3434C186.965 75.3605 187.091 75.4031 187.204 75.4687C187.484 75.6286 193.856 79.1865 197.394 73.9696C197.467 73.861 197.562 73.768 197.672 73.6959C197.781 73.6238 197.904 73.574 198.033 73.5494C198.162 73.5248 198.295 73.5259 198.423 73.5525C198.552 73.5792 198.674 73.6309 198.783 73.7047C198.891 73.7786 198.984 73.873 199.056 73.9828C199.128 74.0926 199.178 74.2155 199.203 74.3445C199.227 74.4735 199.226 74.606 199.2 74.7346C199.173 74.8632 199.121 74.9853 199.048 75.0939C198.302 76.2553 197.27 77.2055 196.051 77.853C194.832 78.5006 193.467 78.8239 192.087 78.7917Z" fill="black"/>
<path d="M276.334 46.8349L191.688 27.5212C193.776 18.3693 199.414 10.4218 207.362 5.42686C215.31 0.431951 224.917 -1.20116 234.068 0.886785L249.699 4.4547C258.85 6.54398 266.797 12.1823 271.792 20.1298C276.787 28.0773 278.42 37.6831 276.334 46.8349Z" fill="#C7B8F8"/>
<path d="M248.715 109.018L206.387 111.956C199.727 112.418 194.703 118.192 195.165 124.852C195.627 131.511 201.401 136.536 208.061 136.074L250.389 133.136C257.049 132.674 262.073 126.9 261.611 120.24C261.149 113.58 255.375 108.556 248.715 109.018Z" fill="#6DC8C2"/>
<path d="M275.771 122.525H173.686V252.544H275.771V122.525Z" fill="#6DC8C2"/>
<path d="M180.112 165.106H18.3516C11.5293 165.106 5.99878 170.636 5.99878 177.458V261.424C5.99878 268.246 11.5293 273.777 18.3516 273.777H180.112C186.934 273.777 192.465 268.246 192.465 261.424V177.458C192.465 170.636 186.934 165.106 180.112 165.106Z" fill="#FFBB45"/>
<path d="M231.81 315.767H190.769L261.083 122.525H285.803C314.431 122.525 334.275 151.044 324.386 177.898L287.887 276.685C283.654 288.149 276.009 298.041 265.983 305.029C255.957 312.016 244.031 315.764 231.81 315.767Z" fill="#6DC8C2"/>
<path d="M158.054 274.766C157.789 274.766 157.535 274.66 157.348 274.473C157.16 274.286 157.055 274.031 157.055 273.766V215.68C157.055 215.415 157.16 215.161 157.348 214.974C157.535 214.786 157.789 214.681 158.054 214.681C158.319 214.681 158.574 214.786 158.761 214.974C158.948 215.161 159.054 215.415 159.054 215.68V273.766C159.054 274.031 158.948 274.286 158.761 274.473C158.574 274.66 158.319 274.766 158.054 274.766Z" fill="black"/>
<path d="M251.792 273.107C260.967 268.275 269.517 268.98 273.189 269.335C278.677 269.868 284.002 271.491 288.855 274.107C289.554 271.803 289.977 269.424 290.114 267.021C290.279 264.118 290.569 251.63 280.995 242.95C274.409 236.954 266.703 236.019 263.765 235.814H156.283C149.703 235.821 143.394 238.439 138.743 243.094C134.092 247.749 131.479 254.059 131.477 260.64V290.937C131.477 297.522 134.093 303.838 138.75 308.495C143.407 313.151 149.722 315.767 156.308 315.767H232.563C233.526 315.767 234.485 315.743 235.441 315.693C234.729 314.784 234.111 313.804 233.598 312.769C228.496 302.42 235.856 289.783 237.365 287.214C240.739 281.239 245.742 276.346 251.792 273.107Z" fill="#6DC8C2"/>
<path d="M288.856 274.106C287.157 273.201 268.738 263.792 251.792 273.106C236.861 281.312 227.732 301.48 233.573 312.768C234.108 313.791 234.724 314.768 235.417 315.691C247.48 314.959 259.038 310.595 268.576 303.173C278.113 295.751 285.182 285.619 288.856 274.106Z" fill="#FFC1EB"/>
<path d="M48.3926 181.761H21.6583C18.49 181.761 15.9216 184.329 15.9216 187.498V200.92C15.9216 204.088 18.49 206.656 21.6583 206.656H48.3926C51.5609 206.656 54.1293 204.088 54.1293 200.92V187.498C54.1293 184.329 51.5609 181.761 48.3926 181.761Z" fill="#FB6D6D"/>
<path d="M49.8536 217.065H19.0417C18.7766 217.065 18.5224 216.96 18.335 216.773C18.1475 216.585 18.0422 216.331 18.0422 216.066C18.0422 215.801 18.1475 215.547 18.335 215.359C18.5224 215.172 18.7766 215.067 19.0417 215.067H49.8386C50.1037 215.067 50.3579 215.172 50.5453 215.359C50.7327 215.547 50.838 215.801 50.838 216.066C50.838 216.331 50.7327 216.585 50.5453 216.773C50.3579 216.96 50.1037 217.065 49.8386 217.065H49.8536Z" fill="black"/>
<path d="M41.7134 226.474H19.0417C18.7766 226.474 18.5224 226.369 18.335 226.181C18.1475 225.994 18.0422 225.74 18.0422 225.475C18.0422 225.21 18.1475 224.956 18.335 224.768C18.5224 224.581 18.7766 224.475 19.0417 224.475H41.6984C41.9634 224.475 42.2177 224.581 42.4051 224.768C42.5925 224.956 42.6978 225.21 42.6978 225.475C42.6978 225.74 42.5925 225.994 42.4051 226.181C42.2177 226.369 41.9634 226.474 41.6984 226.474H41.7134Z" fill="black"/>
<path d="M157.857 216.68C156.167 216.682 154.502 216.273 153.005 215.49C151.508 214.707 150.224 213.572 149.262 212.183L117.78 170.163C117.701 170.058 117.644 169.938 117.611 169.811C117.579 169.684 117.572 169.551 117.59 169.422C117.609 169.292 117.653 169.167 117.72 169.054C117.786 168.941 117.875 168.842 117.98 168.763C118.085 168.685 118.204 168.627 118.331 168.595C118.459 168.562 118.591 168.555 118.721 168.574C118.851 168.592 118.976 168.636 119.089 168.703C119.202 168.77 119.3 168.858 119.379 168.963L150.891 211.014C151.692 212.178 152.772 213.123 154.032 213.762C155.292 214.402 156.692 214.717 158.105 214.677C159.518 214.637 160.898 214.245 162.12 213.535C163.342 212.825 164.368 211.821 165.102 210.614L188.748 169.068C188.814 168.954 188.901 168.854 189.006 168.774C189.11 168.694 189.229 168.636 189.356 168.601C189.483 168.567 189.615 168.559 189.745 168.576C189.876 168.593 190.001 168.635 190.115 168.701C190.229 168.767 190.329 168.854 190.409 168.958C190.489 169.062 190.548 169.181 190.582 169.308C190.616 169.435 190.625 169.567 190.608 169.698C190.591 169.828 190.548 169.954 190.482 170.068L166.826 211.638C165.923 213.135 164.659 214.381 163.15 215.263C161.64 216.145 159.934 216.634 158.186 216.685L157.857 216.68Z" fill="black"/>
<path d="M115.873 274.766C115.608 274.766 115.354 274.661 115.167 274.473C114.979 274.286 114.874 274.032 114.874 273.767V180.756C114.449 167.099 123.299 164.266 123.674 164.146C123.799 164.108 123.931 164.094 124.062 164.107C124.193 164.12 124.32 164.158 124.436 164.22C124.552 164.281 124.655 164.365 124.738 164.467C124.822 164.568 124.885 164.685 124.923 164.811C124.961 164.936 124.975 165.068 124.962 165.199C124.949 165.33 124.911 165.457 124.849 165.573C124.788 165.689 124.704 165.792 124.602 165.875C124.501 165.959 124.384 166.021 124.258 166.06C123.944 166.16 116.498 168.633 116.873 180.726V273.767C116.873 274.032 116.767 274.286 116.58 274.473C116.393 274.661 116.138 274.766 115.873 274.766Z" fill="black"/>
<path d="M172.234 113.861H45.0636C42.243 113.861 39.9565 116.148 39.9565 118.968V159.795C39.9565 162.615 42.243 164.902 45.0636 164.902H172.234C175.055 164.902 177.341 162.615 177.341 159.795V118.968C177.341 116.148 175.055 113.861 172.234 113.861Z" fill="#FFC1EB"/>
<path d="M177.341 136.888H39.9565V141.871H177.341V136.888Z" fill="#FB6D6D"/>
<path d="M164.192 71.7417H85.0633C81.5418 71.7417 78.687 74.5965 78.687 78.118V107.686C78.687 111.207 81.5418 114.062 85.0633 114.062H164.192C167.713 114.062 170.568 111.207 170.568 107.686V78.118C170.568 74.5965 167.713 71.7417 164.192 71.7417Z" fill="#FFBB45"/>
<path d="M170.568 89.5201H78.687V92.9032H170.568V89.5201Z" fill="#6DC8C2"/>
<path d="M125.461 71.7417H121.408V114.062H125.461V71.7417Z" fill="#6DC8C2"/>
<path d="M158.318 33.4481H120.035C116.643 33.4481 113.894 36.1977 113.894 39.5895V65.6043C113.894 68.9961 116.643 71.7457 120.035 71.7457H158.318C161.709 71.7457 164.459 68.9961 164.459 65.6043V39.5895C164.459 36.1977 161.709 33.4481 158.318 33.4481Z" fill="#C7B8F8"/>
<path d="M138.807 54.5653C136.44 54.5648 134.163 53.6562 132.446 52.0268L115.171 35.8262C114.977 35.6447 114.864 35.3937 114.855 35.1285C114.847 34.8633 114.944 34.6056 115.126 34.4121C115.307 34.2186 115.558 34.1051 115.824 34.0967C116.089 34.0883 116.347 34.1855 116.54 34.3671L133.815 50.5726C135.144 51.8324 136.901 52.5429 138.732 52.5614C140.564 52.58 142.335 51.9052 143.689 50.6726L161.829 34.3521C162.027 34.1752 162.288 34.0845 162.554 34.0999C162.82 34.1154 163.068 34.2358 163.245 34.4346C163.422 34.6334 163.513 34.8943 163.497 35.16C163.482 35.4257 163.362 35.6743 163.163 35.8512L145.023 52.1717C143.319 53.7118 141.104 54.5647 138.807 54.5653Z" fill="black"/>
<path d="M120.779 257.562C120.844 258.891 98.4616 257.702 96.7476 257.612C93.1198 257.427 89.4969 257.222 85.874 256.977C82.0062 256.717 78.1085 255.808 74.2408 255.918C72.4369 255.973 70.6729 256.477 69.7434 258.181C67.6447 262.124 75.3551 264.888 77.8637 265.752C82.6958 267.411 86.3137 267.461 86.3087 268.021C86.3087 268.38 84.8096 268.755 82.2111 268.99C75.4351 269.61 62.5626 268.171 50.6046 263.638C47.8462 262.594 45.1078 261.03 42.1546 260.6C41.3984 260.462 40.6191 260.528 39.897 260.791C39.1749 261.055 38.5362 261.506 38.047 262.099C37.1275 263.333 36.9176 265.527 37.927 266.771C38.513 267.383 39.1866 267.903 39.9259 268.316C39.2609 268.607 38.6376 268.985 38.072 269.44C36.6478 270.789 37.0726 273.273 38.072 274.737C39.4012 276.701 41.6199 277.975 43.5688 279.204C45.8564 280.645 48.2201 281.961 50.6496 283.147C51.0117 283.304 51.3567 283.498 51.679 283.727C52.258 284.195 52.7634 284.747 53.1781 285.366C53.6659 285.979 54.1987 286.555 54.7722 287.09C59.1196 291.287 64.9962 293.831 70.7378 295.44C76.4795 297.049 82.506 297.863 88.5025 298.588C97.0824 299.632 106.047 299.237 114.237 296.294C115.282 295.919 122.632 293.296 122.573 292.137C121.973 280.61 121.375 269.085 120.779 257.562Z" fill="white"/>
<path d="M96.9078 300.116C94.0512 300.11 91.1975 299.929 88.3628 299.576C81.9466 298.796 76.175 298.017 70.4833 296.423C63.4874 294.459 57.9656 291.566 54.0929 287.828C53.4832 287.258 52.917 286.643 52.3989 285.989L52.219 285.749C51.9196 285.3 51.554 284.899 51.1346 284.56C50.875 284.372 50.595 284.215 50.3001 284.09C47.7566 282.976 43.1243 280.092 43.0793 280.092L42.5796 279.792C40.7107 278.633 38.582 277.294 37.2477 275.335C35.9135 273.376 35.6387 270.418 37.3927 268.754C37.588 268.572 37.7968 268.405 38.0173 268.254C37.7009 268.011 37.4111 267.734 37.1528 267.43C35.8136 265.776 36.1234 263.042 37.2527 261.528C37.8451 260.786 38.6263 260.217 39.5144 259.881C40.4025 259.545 41.3646 259.455 42.2998 259.619C44.4985 259.939 46.5423 260.834 48.5212 261.693C49.3607 262.063 50.1602 262.408 50.9647 262.692C62.8528 267.19 75.4504 268.594 82.1265 267.984H82.2464C80.6547 267.649 79.0844 267.218 77.5442 266.695C72.4122 264.936 69.5039 263.027 68.6494 260.859C68.4491 260.351 68.3648 259.804 68.4029 259.26C68.4409 258.715 68.6003 258.186 68.8692 257.71C69.8137 255.931 71.6076 254.992 74.1911 254.917C76.641 254.911 79.0874 255.101 81.5068 255.487C82.971 255.682 84.5051 255.881 85.9592 255.986C89.3373 256.216 92.8852 256.426 96.8129 256.626H96.9728C111.649 257.386 119.205 257.291 120.184 256.856C120.056 256.935 119.952 257.047 119.883 257.181C119.815 257.315 119.784 257.465 119.794 257.615L121.793 257.515L123.577 292.085C123.617 292.84 123.677 293.979 114.582 297.237C108.901 299.21 102.921 300.183 96.9078 300.116ZM41.4403 261.543C40.9483 261.523 40.4583 261.618 40.0097 261.821C39.561 262.024 39.1662 262.329 38.8568 262.712C38.2022 263.587 37.9973 265.286 38.7069 266.165C39.2137 266.678 39.7929 267.114 40.4259 267.46L42.1599 268.429L40.3659 269.269C39.8024 269.515 39.2719 269.83 38.7868 270.208C37.7874 271.182 38.2072 273.161 38.9218 274.206C40.0261 275.83 41.87 276.979 43.654 278.083L44.1537 278.388C46.3969 279.799 48.7121 281.091 51.0897 282.261C51.5164 282.445 51.9219 282.674 52.2989 282.946C52.8804 283.4 53.3863 283.943 53.7981 284.555L53.973 284.785C54.4319 285.359 54.933 285.899 55.4721 286.399C59.105 289.897 64.3319 292.635 71.013 294.509C76.5697 296.068 82.2614 296.832 88.5977 297.602C98.0322 298.751 106.537 297.997 113.878 295.363C118.98 293.534 121.039 292.365 121.538 291.94L119.839 258.96C117.591 259.284 111.929 259.424 96.8529 258.645H96.688C92.7553 258.445 89.1923 258.235 85.8043 258.005C84.2702 257.905 82.7211 257.7 81.227 257.505C78.9245 257.142 76.5971 256.958 74.2661 256.956C72.3972 257.011 71.2678 257.56 70.6482 258.69C70.5104 258.912 70.4276 259.164 70.4068 259.425C70.3859 259.686 70.4276 259.948 70.5283 260.189C70.948 261.263 72.627 262.947 78.2088 264.866C80.2333 265.538 82.3043 266.061 84.4051 266.43C86.299 266.795 87.3434 266.995 87.3284 268.094C87.3284 269.064 86.5089 269.658 82.3314 270.043C75.4304 270.673 62.458 269.249 50.2751 264.631C49.4256 264.311 48.5661 263.937 47.7416 263.577C45.8827 262.767 43.9638 261.928 42.0349 261.648C41.8466 261.597 41.6544 261.562 41.4603 261.543H41.4403Z" fill="black"/>
<path d="M73.7363 280.224C68.5344 280.224 62.0232 278.774 54.2827 275.886C49.2105 273.978 44.265 271.748 39.4764 269.21C39.3612 269.147 39.2596 269.061 39.1775 268.959C39.0953 268.856 39.0341 268.738 38.9975 268.612C38.9608 268.486 38.9494 268.354 38.9638 268.223C38.9782 268.093 39.0183 267.966 39.0816 267.851C39.1449 267.736 39.2303 267.634 39.3329 267.552C39.4355 267.47 39.5532 267.409 39.6794 267.372C39.8057 267.335 39.9379 267.324 40.0685 267.338C40.1991 267.353 40.3256 267.393 40.4408 267.456C40.6957 267.596 66.2057 281.448 79.1032 277.51C79.357 277.433 79.6312 277.459 79.8655 277.584C80.0997 277.708 80.2749 277.921 80.3524 278.175C80.43 278.429 80.4035 278.703 80.2789 278.937C80.1542 279.171 79.9416 279.347 79.6878 279.424C77.7541 279.982 75.7487 280.251 73.7363 280.224Z" fill="black"/>
<path d="M72.7522 289.807C63.0429 289.807 51.8844 284.915 51.3148 284.66C51.1874 284.612 51.0712 284.539 50.9732 284.444C50.8752 284.35 50.7976 284.236 50.745 284.111C50.6925 283.985 50.6661 283.85 50.6675 283.714C50.669 283.578 50.6982 283.444 50.7534 283.319C50.8086 283.195 50.8887 283.083 50.9886 282.991C51.0886 282.898 51.2063 282.827 51.3347 282.782C51.463 282.737 51.5993 282.718 51.7351 282.728C51.8708 282.737 52.0033 282.774 52.1243 282.836C52.2892 282.906 68.5247 290.022 78.174 287.104C78.2997 287.065 78.4316 287.053 78.5623 287.065C78.693 287.078 78.8198 287.117 78.9356 287.179C79.0514 287.241 79.1538 287.325 79.2371 287.426C79.3203 287.528 79.3828 287.645 79.4208 287.771C79.4589 287.896 79.4718 288.028 79.4589 288.159C79.4459 288.29 79.4074 288.416 79.3455 288.532C79.2835 288.648 79.1994 288.75 79.0978 288.834C78.9963 288.917 78.8794 288.979 78.7537 289.017C76.8023 289.571 74.7805 289.837 72.7522 289.807Z" fill="black"/>
<path d="M72.1815 35.097H50.5842C47.0765 35.097 44.2329 37.9406 44.2329 41.4483V107.63C44.2329 111.137 47.0765 113.981 50.5842 113.981H72.1815C75.6893 113.981 78.5328 111.137 78.5328 107.63V41.4483C78.5328 37.9406 75.6893 35.097 72.1815 35.097Z" fill="#6DC8C2"/>
<path d="M61.3961 61.9308H61.3211C57.0936 61.9058 52.7661 59.817 49.4481 56.1941C47.4696 53.9983 45.9642 51.419 45.0254 48.6164C44.0867 45.8139 43.7346 42.8481 43.9913 39.9037C44.002 39.7727 44.0384 39.6451 44.0985 39.5283C44.1585 39.4114 44.2411 39.3075 44.3413 39.2226C44.4416 39.1377 44.5576 39.0733 44.6827 39.0333C44.8079 38.9932 44.9397 38.9782 45.0706 38.9892C45.2016 38.9999 45.3292 39.0363 45.446 39.0964C45.5629 39.1565 45.6668 39.239 45.7517 39.3392C45.8366 39.4395 45.901 39.5555 45.941 39.6807C45.9811 39.8058 45.996 39.9376 45.9851 40.0685C45.7501 42.7377 46.0671 45.4267 46.9165 47.968C47.7659 50.5093 49.1294 52.8485 50.9222 54.8399C53.8655 58.053 57.6583 59.9069 61.3311 59.9269H61.3961C65.4937 59.9269 68.6668 57.6433 70.6057 55.7194C74.3785 51.9816 76.922 46.2849 76.942 41.5427C76.942 41.3162 76.942 41.1163 76.942 40.943C76.9366 40.8118 76.9572 40.6807 77.0025 40.5574C77.0479 40.4341 77.1171 40.321 77.2062 40.2244C77.2953 40.1279 77.4026 40.0499 77.5219 39.9948C77.6412 39.9398 77.7701 39.9088 77.9014 39.9037C78.1657 39.8928 78.4235 39.9872 78.6183 40.1661C78.8132 40.345 78.9291 40.5938 78.9408 40.8581C78.9408 41.0613 78.9408 41.2912 78.9408 41.5477C78.9408 46.7896 76.1375 53.041 72.0149 57.1386C68.8517 60.2767 65.1789 61.9308 61.3961 61.9308Z" fill="black"/>
<path d="M46.7236 113.571C46.5755 113.571 46.4292 113.538 46.2952 113.475C46.1613 113.412 46.043 113.32 45.949 113.206C45.7818 113.001 45.7026 112.738 45.7288 112.475C45.755 112.212 45.8845 111.969 46.0889 111.802L60.9902 99.5438V60.8914C60.9902 60.6263 61.0955 60.3721 61.2829 60.1847C61.4704 59.9973 61.7246 59.892 61.9896 59.892C62.2547 59.892 62.5089 59.9973 62.6963 60.1847C62.8837 60.3721 62.989 60.6263 62.989 60.8914V100.503L47.3582 113.361C47.177 113.501 46.9529 113.576 46.7236 113.571Z" fill="black"/>
<path d="M77.01 113.121C76.7806 113.12 76.5582 113.041 76.3804 112.896L61.3892 100.793C61.1955 100.623 61.075 100.384 61.053 100.127C61.0309 99.8703 61.1091 99.6149 61.271 99.4142C61.433 99.2136 61.6662 99.0833 61.9219 99.0506C62.1777 99.0178 62.4362 99.0852 62.6434 99.2387L77.6347 111.342C77.7961 111.471 77.9133 111.647 77.9702 111.846C78.0271 112.045 78.0208 112.257 77.9522 112.452C77.8837 112.647 77.7562 112.817 77.5875 112.936C77.4187 113.056 77.2169 113.12 77.01 113.121Z" fill="black"/>
<path d="M139.18 72.7394C138.915 72.7394 138.661 72.6341 138.473 72.4467C138.286 72.2593 138.181 72.0051 138.181 71.74V53.5357C138.181 53.2706 138.286 53.0164 138.473 52.829C138.661 52.6415 138.915 52.5363 139.18 52.5363C139.445 52.5363 139.699 52.6415 139.887 52.829C140.074 53.0164 140.179 53.2706 140.179 53.5357V71.74C140.179 72.0051 140.074 72.2593 139.887 72.4467C139.699 72.6341 139.445 72.7394 139.18 72.7394Z" fill="black"/>
<path d="M135.491 258.21C135.491 253.871 131.974 250.354 127.635 250.354C123.297 250.354 119.78 253.871 119.78 258.21V292.145C119.78 296.483 123.297 300 127.635 300C131.974 300 135.491 296.483 135.491 292.145V258.21Z" fill="#6DC8C2"/>
<path d="M135.477 290.903C135.212 290.903 134.958 290.797 134.77 290.61C134.583 290.422 134.478 290.168 134.478 289.903V258.212C134.478 257.947 134.583 257.692 134.77 257.505C134.958 257.318 135.212 257.212 135.477 257.212C135.742 257.212 135.996 257.318 136.184 257.505C136.371 257.692 136.476 257.947 136.476 258.212V289.903C136.476 290.168 136.371 290.422 136.184 290.61C135.996 290.797 135.742 290.903 135.477 290.903Z" fill="black"/>
<path d="M202.356 129.576C202.091 129.582 201.834 129.482 201.643 129.299C201.451 129.116 201.34 128.864 201.334 128.599C201.328 128.334 201.428 128.077 201.611 127.886C201.794 127.694 202.046 127.583 202.311 127.577L253.841 125.473C253.972 125.468 254.103 125.489 254.227 125.534C254.35 125.579 254.463 125.649 254.559 125.738C254.656 125.827 254.734 125.934 254.789 126.053C254.844 126.173 254.875 126.302 254.88 126.433C254.886 126.564 254.865 126.695 254.82 126.818C254.774 126.942 254.705 127.055 254.616 127.151C254.527 127.248 254.42 127.326 254.3 127.381C254.181 127.436 254.052 127.467 253.921 127.472L202.396 129.581L202.356 129.576Z" fill="black"/>
<path d="M220.56 236.813H192.442C192.176 236.813 191.922 236.708 191.735 236.52C191.547 236.333 191.442 236.079 191.442 235.813C191.442 235.548 191.547 235.294 191.735 235.107C191.922 234.919 192.176 234.814 192.442 234.814H219.141L238.57 181.415C238.66 181.166 238.846 180.963 239.087 180.851C239.327 180.739 239.602 180.727 239.851 180.818C240.1 180.909 240.303 181.095 240.415 181.335C240.527 181.576 240.539 181.851 240.448 182.1L220.56 236.813Z" fill="black"/>
<path d="M207.105 15.9197C205.651 15.6506 204.254 16.6106 203.985 18.0638C203.716 19.517 204.677 20.9132 206.132 21.1823L221.02 23.9363C222.475 24.2054 223.872 23.2454 224.141 21.7922C224.41 20.339 223.448 18.9428 221.994 18.6737L207.105 15.9197Z" fill="black"/>
<path d="M353.389 27.611H313.212C306.71 27.611 301.439 32.882 301.439 39.3841V79.5606C301.439 86.0627 306.71 91.3337 313.212 91.3337H353.389C359.891 91.3337 365.162 86.0627 365.162 79.5606V39.3841C365.162 32.882 359.891 27.611 353.389 27.611Z" fill="white"/>
<path d="M353.387 92.3329H313.211C309.824 92.3276 306.577 90.9796 304.183 88.5843C301.789 86.1891 300.442 82.9421 300.438 79.5554V39.4039C300.442 36.0176 301.789 32.7712 304.183 30.3767C306.578 27.9823 309.824 26.6353 313.211 26.6313H353.387C356.773 26.6353 360.02 27.9823 362.414 30.3767C364.809 32.7712 366.156 36.0176 366.16 39.4039V79.5754C366.15 82.9586 364.801 86.2004 362.407 88.5914C360.014 90.9823 356.77 92.3276 353.387 92.3329ZM313.211 28.6102C311.794 28.6115 310.392 28.8917 309.085 29.4349C307.777 29.978 306.589 30.7734 305.588 31.7757C304.588 32.778 303.795 33.9675 303.254 35.2764C302.713 36.5852 302.436 37.9877 302.437 39.4039V79.5754C302.439 82.4324 303.575 85.1717 305.595 87.1924C307.615 89.213 310.354 90.3501 313.211 90.354H353.387C356.244 90.3501 358.983 89.213 361.003 87.1924C363.022 85.1717 364.158 82.4324 364.161 79.5754V39.4039C364.158 36.5473 363.022 33.8085 361.002 31.7886C358.982 29.7688 356.244 28.6328 353.387 28.6302L313.211 28.6102Z" fill="black"/>
<path d="M347.627 47.0604H318.978C316.572 47.0604 314.621 49.0113 314.621 51.4179V75.6887C314.621 78.0952 316.572 80.0461 318.978 80.0461H347.627C350.033 80.0461 351.984 78.0952 351.984 75.6887V51.4179C351.984 49.0113 350.033 47.0604 347.627 47.0604Z" fill="#FFC1EB"/>
<path d="M351.98 58.8469H314.621C314.356 58.8469 314.102 58.7416 313.915 58.5541C313.727 58.3667 313.622 58.1125 313.622 57.8474C313.622 57.5824 313.727 57.3282 313.915 57.1407C314.102 56.9533 314.356 56.848 314.621 56.848H351.98C352.245 56.848 352.499 56.9533 352.686 57.1407C352.874 57.3282 352.979 57.5824 352.979 57.8474C352.979 58.1125 352.874 58.3667 352.686 58.5541C352.499 58.7416 352.245 58.8469 351.98 58.8469Z" fill="#FB6D6D"/>
<path d="M334.86 48.0593H333.311C324.106 48.0593 321.468 44.8562 320.878 42.1678C320.767 41.6757 320.764 41.1655 320.869 40.6722C320.974 40.1789 321.185 39.7141 321.486 39.3097C321.787 38.9053 322.173 38.5708 322.615 38.3293C323.058 38.0878 323.548 37.9448 324.051 37.9103C329.998 37.5005 334.045 46.2704 334.22 46.6452L334.86 48.0593ZM324.431 39.9041H324.176C323.963 39.9197 323.755 39.9808 323.567 40.0834C323.379 40.186 323.215 40.3276 323.087 40.4988C322.956 40.6742 322.864 40.8755 322.818 41.0892C322.771 41.3029 322.771 41.5242 322.817 41.738C323.377 44.2616 326.485 45.7607 331.632 46.0205C330.198 43.522 327.444 39.9041 324.431 39.9041Z" fill="#FB6D6D"/>
<path d="M333.172 48.0597H331.618L332.258 46.6455C332.428 46.2707 336.476 37.4959 342.427 37.9106C342.931 37.9445 343.421 38.0869 343.864 38.3282C344.308 38.5694 344.694 38.9037 344.996 39.3082C345.298 39.7127 345.508 40.1778 345.614 40.6714C345.719 41.1651 345.716 41.6757 345.605 42.1681C345.011 44.8565 342.352 48.0597 333.172 48.0597ZM342.042 39.9044C339.044 39.9044 336.276 43.5323 334.837 46.0309C339.989 45.771 343.097 44.2719 343.651 41.7484C343.7 41.5346 343.701 41.3129 343.654 41.0988C343.607 40.8847 343.514 40.6834 343.382 40.5091C343.254 40.3365 343.091 40.1938 342.903 40.0911C342.715 39.9884 342.506 39.9281 342.292 39.9144L342.042 39.9044Z" fill="#FB6D6D"/>
<path d="M343.253 65.6086C343.078 65.6084 342.906 65.5622 342.754 65.4745C342.602 65.3868 342.476 65.2607 342.389 65.1089L333.079 49.0583L324.209 64.5242C324.077 64.7542 323.859 64.9221 323.602 64.9909C323.346 65.0598 323.073 65.0241 322.843 64.8915C322.613 64.759 322.445 64.5406 322.376 64.2843C322.307 64.0279 322.343 63.7548 322.475 63.5248L333.069 45.0356L344.118 64.0845C344.251 64.3132 344.287 64.5852 344.22 64.8409C344.152 65.0966 343.986 65.3152 343.758 65.4487C343.607 65.5464 343.433 65.6017 343.253 65.6086Z" fill="#FB6D6D"/>
<path d="M333.458 81.0451C333.193 81.0451 332.939 80.9398 332.751 80.7524C332.564 80.565 332.459 80.3108 332.459 80.0457V48.1094C332.459 47.8443 332.564 47.5901 332.751 47.4027C332.939 47.2153 333.193 47.11 333.458 47.11C333.723 47.11 333.977 47.2153 334.165 47.4027C334.352 47.5901 334.458 47.8443 334.458 48.1094V80.0457C334.458 80.3108 334.352 80.565 334.165 80.7524C333.977 80.9398 333.723 81.0451 333.458 81.0451Z" fill="#FB6D6D"/>
<path d="M68.8141 96.9705H15.1005C7.31235 96.9705 0.998779 103.284 0.998779 111.072C0.998779 118.86 7.31235 125.174 15.1005 125.174H68.8141C76.6023 125.174 82.9158 118.86 82.9158 111.072C82.9158 103.284 76.6023 96.9705 68.8141 96.9705Z" fill="white"/>
<path d="M68.8097 126.173H15.1012C11.0961 126.173 7.25505 124.582 4.42303 121.75C1.59101 118.918 0 115.077 0 111.072C0 107.067 1.59101 103.226 4.42303 100.394C7.25505 97.562 11.0961 95.9709 15.1012 95.9709H68.8097C72.8148 95.9709 76.6559 97.562 79.4879 100.394C82.3199 103.226 83.9109 107.067 83.9109 111.072C83.9109 115.077 82.3199 118.918 79.4879 121.75C76.6559 124.582 72.8148 126.173 68.8097 126.173ZM15.1012 97.9698C11.6262 97.9698 8.29358 99.3502 5.83642 101.807C3.37925 104.265 1.99883 107.597 1.99883 111.072C1.99883 114.547 3.37925 117.88 5.83642 120.337C8.29358 122.794 11.6262 124.174 15.1012 124.174H68.8097C72.2847 124.174 75.6173 122.794 78.0745 120.337C80.5316 117.88 81.9121 114.547 81.9121 111.072C81.9121 107.597 80.5316 104.265 78.0745 101.807C75.6173 99.3502 72.2847 97.9698 68.8097 97.9698H15.1012Z" fill="black"/>
<path d="M19.6382 115.664C22.1745 115.664 24.2305 113.608 24.2305 111.071C24.2305 108.535 22.1745 106.479 19.6382 106.479C17.1019 106.479 15.0459 108.535 15.0459 111.071C15.0459 113.608 17.1019 115.664 19.6382 115.664Z" fill="#6DC8C2"/>
<path d="M41.9549 115.664C44.4911 115.664 46.5472 113.608 46.5472 111.071C46.5472 108.535 44.4911 106.479 41.9549 106.479C39.4186 106.479 37.3625 108.535 37.3625 111.071C37.3625 113.608 39.4186 115.664 41.9549 115.664Z" fill="#6DC8C2"/>
<path d="M64.2717 115.664C66.808 115.664 68.8641 113.608 68.8641 111.071C68.8641 108.535 66.808 106.479 64.2717 106.479C61.7355 106.479 59.6794 108.535 59.6794 111.071C59.6794 113.608 61.7355 115.664 64.2717 115.664Z" fill="#6DC8C2"/>
<path d="M377.2 156.86H279.732C270.453 156.86 262.931 164.382 262.931 173.66V280.363C262.931 289.641 270.453 297.163 279.732 297.163H377.2C386.478 297.163 394 289.641 394 280.363V173.66C394 164.382 386.478 156.86 377.2 156.86Z" fill="white"/>
<path d="M377.2 298.163H279.732C275.013 298.158 270.489 296.281 267.152 292.944C263.815 289.607 261.938 285.083 261.933 280.364V173.661C261.938 168.942 263.815 164.418 267.152 161.081C270.489 157.744 275.013 155.867 279.732 155.861H377.2C381.919 155.867 386.444 157.744 389.781 161.081C393.117 164.418 394.994 168.942 395 173.661V280.364C394.994 285.083 393.117 289.607 389.781 292.944C386.444 296.281 381.919 298.158 377.2 298.163ZM279.732 157.86C275.543 157.866 271.527 159.532 268.565 162.494C265.603 165.456 263.937 169.472 263.931 173.661V280.364C263.935 284.553 265.601 288.57 268.564 291.532C271.526 294.494 275.543 296.16 279.732 296.164H377.2C381.389 296.159 385.405 294.493 388.367 291.531C391.329 288.568 392.996 284.553 393.001 280.364V173.661C392.996 169.472 391.329 165.456 388.367 162.494C385.405 159.532 381.389 157.866 377.2 157.86H279.732Z" fill="black"/>
<path d="M295.708 209.624H282.67C278.887 209.624 275.819 212.692 275.819 216.475V229.513C275.819 233.296 278.887 236.364 282.67 236.364H295.708C299.491 236.364 302.559 233.296 302.559 229.513V216.475C302.559 212.692 299.491 209.624 295.708 209.624Z" fill="#C7B8F8"/>
<path d="M295.708 250.222H282.67C278.887 250.222 275.819 253.289 275.819 257.073V270.11C275.819 273.894 278.887 276.961 282.67 276.961H295.708C299.491 276.961 302.559 273.894 302.559 270.11V257.073C302.559 253.289 299.491 250.222 295.708 250.222Z" fill="#C7B8F8"/>
<path d="M379.388 216.491H319.034C318.769 216.491 318.514 216.385 318.327 216.198C318.139 216.01 318.034 215.756 318.034 215.491C318.034 215.226 318.139 214.972 318.327 214.785C318.514 214.597 318.769 214.492 319.034 214.492H379.388C379.653 214.492 379.908 214.597 380.095 214.785C380.282 214.972 380.388 215.226 380.388 215.491C380.388 215.756 380.282 216.01 380.095 216.198C379.908 216.385 379.653 216.491 379.388 216.491Z" fill="black"/>
<path d="M356.237 231.212H319.034C318.769 231.212 318.514 231.107 318.327 230.919C318.139 230.732 318.034 230.478 318.034 230.213C318.034 229.948 318.139 229.693 318.327 229.506C318.514 229.319 318.769 229.213 319.034 229.213H356.237C356.502 229.213 356.756 229.319 356.944 229.506C357.131 229.693 357.236 229.948 357.236 230.213C357.236 230.478 357.131 230.732 356.944 230.919C356.756 231.107 356.502 231.212 356.237 231.212Z" fill="black"/>
<path d="M379.388 257.226H319.034C318.769 257.226 318.514 257.121 318.327 256.933C318.139 256.746 318.034 256.492 318.034 256.227C318.034 255.961 318.139 255.707 318.327 255.52C318.514 255.332 318.769 255.227 319.034 255.227H379.388C379.653 255.227 379.908 255.332 380.095 255.52C380.282 255.707 380.388 255.961 380.388 256.227C380.388 256.492 380.282 256.746 380.095 256.933C379.908 257.121 379.653 257.226 379.388 257.226Z" fill="black"/>
<path d="M356.237 271.948H319.034C318.769 271.948 318.514 271.843 318.327 271.655C318.139 271.468 318.034 271.214 318.034 270.949C318.034 270.684 318.139 270.43 318.327 270.242C318.514 270.055 318.769 269.949 319.034 269.949H356.237C356.502 269.949 356.756 270.055 356.944 270.242C357.131 270.43 357.236 270.684 357.236 270.949C357.236 271.214 357.131 271.468 356.944 271.655C356.756 271.843 356.502 271.948 356.237 271.948Z" fill="black"/>
<path d="M288.851 171.582H289.526C291.654 171.582 293.695 172.427 295.2 173.932C296.705 175.437 297.551 177.478 297.551 179.607V188.317H280.826V179.607C280.826 177.478 281.671 175.437 283.176 173.932C284.681 172.427 286.723 171.582 288.851 171.582Z" fill="#FFBB45"/>
<path d="M298.712 186.693H279.668C278.167 186.693 276.949 187.91 276.949 189.411V189.636C276.949 191.137 278.167 192.354 279.668 192.354H298.712C300.213 192.354 301.43 191.137 301.43 189.636V189.411C301.43 187.91 300.213 186.693 298.712 186.693Z" fill="#FFBB45"/>
<path d="M289.19 195.702C291.039 195.702 292.538 194.203 292.538 192.353C292.538 190.504 291.039 189.005 289.19 189.005C287.341 189.005 285.842 190.504 285.842 192.353C285.842 194.203 287.341 195.702 289.19 195.702Z" fill="#FFBB45"/>
<path d="M289.098 167.899H289.288C289.881 167.899 290.451 168.135 290.871 168.554C291.29 168.974 291.526 169.544 291.526 170.137V175.049H286.864V170.137C286.864 169.544 287.099 168.976 287.518 168.556C287.937 168.136 288.505 167.9 289.098 167.899Z" fill="#FFBB45"/>
</svg>
