<svg width="40" height="40" viewBox="0 0 40 40" fill="none" xmlns="http://www.w3.org/2000/svg">
<mask id="mask0_1_336" style="mask-type:alpha" maskUnits="userSpaceOnUse" x="6" y="11" width="28" height="18">
<path d="M20.0029 11.1112C25.0121 11.1112 29.2016 13.2974 32.5299 17.6356C33.6003 19.0307 33.6013 20.9705 32.5325 22.3667C29.2125 26.7035 25.0221 28.8888 20.0029 28.8888C14.9845 28.8888 10.7928 26.7042 7.46927 22.3688C6.39831 20.9717 6.39934 19.0295 7.47178 17.6336C10.8037 13.2967 14.9945 11.1112 20.0029 11.1112ZM20.0029 12.2223C15.3495 12.2223 11.4799 14.2403 8.35288 18.3105C7.58685 19.3076 7.58611 20.6949 8.35109 21.6928C11.4696 25.7607 15.3396 27.7777 20.0029 27.7777C24.6668 27.7777 28.5353 25.7603 31.6502 21.6913C32.4137 20.694 32.4129 19.3085 31.6484 18.312C28.5249 14.2407 24.6568 12.2223 20.0029 12.2223ZM20.0029 14.4445C20.3921 14.4445 20.7765 14.4846 21.1516 14.5635C21.5383 14.6448 21.7189 15.0926 21.4967 15.4194C21.2485 15.7846 21.114 16.2149 21.114 16.6667C21.114 17.894 22.1089 18.8889 23.3362 18.8889C23.788 18.8889 24.2183 18.7544 24.5835 18.5062C24.9103 18.284 25.3581 18.4646 25.4394 18.8513C25.5183 19.2264 25.5584 19.6108 25.5584 20C25.5584 23.0682 23.0711 25.5555 20.0029 25.5555C16.9347 25.5555 14.4474 23.0682 14.4474 20C14.4474 16.9318 16.9347 14.4445 20.0029 14.4445ZM20.0029 15.5556C17.5483 15.5556 15.5585 17.5454 15.5585 20C15.5585 22.4546 17.5483 24.4444 20.0029 24.4444C22.4575 24.4444 24.4473 22.4546 24.4473 20C24.4473 19.937 24.446 19.8742 24.4434 19.8116C24.0921 19.9352 23.7188 20 23.3362 20C21.4953 20 20.0029 18.5076 20.0029 16.6667C20.0029 16.2841 20.0677 15.9108 20.1913 15.5595C20.1287 15.5569 20.0659 15.5556 20.0029 15.5556Z" fill="white"/>
</mask>
<g mask="url(#mask0_1_336)">
<path d="M33.3362 6.66673H6.66968V33.3333H33.3362V6.66673Z" fill="url(#paint0_linear_1_336)"/>
</g>
<defs>
<linearGradient id="paint0_linear_1_336" x1="10.003" y1="6.66673" x2="15.3484" y2="36.3954" gradientUnits="userSpaceOnUse">
<stop stop-color="#EB00FF"/>
<stop offset="1" stop-color="#1BFFE4"/>
</linearGradient>
</defs>
</svg>
